<?xml version="1.0"?><svg width="342" height="385" xmlns="http://www.w3.org/2000/svg">
 <title>Cash Register</title>
 <g>
  <title>Layer 1</title>
  <g>
   <path fill="black" d="m322.891968,104.314011c-0.711975,-8.395996 -8.092987,-15.200012 -16.486969,-15.200012h-180.240005v-41.309998h35.071991c6.604004,0 11.956024,-5.354004 11.956024,-11.956009v-23.891998c0,-6.60199 -5.353027,-11.955994 -11.956024,-11.955994h-105.436996c-6.603989,0 -11.955994,5.354004 -11.955994,11.955994v23.891998c0,6.602005 5.352997,11.956009 11.955994,11.956009h35.070007v41.309998h-54.938995c-8.394012,0 -15.774002,6.804016 -16.488007,15.200012l-16.371002,189.67601h336.191986l-16.372009,-189.67601zm-12.776978,128.325989c0.452026,2.838989 -1.585999,5.141998 -4.554993,5.141998h-12.268005c-2.968018,0 -5.679016,-2.303009 -6.052979,-5.141998l-1.551025,-11.737c-0.374023,-2.838989 1.664032,-5.139008 4.557007,-5.139008h11.947998c2.891022,0 5.602997,2.300018 6.053009,5.139008l1.868988,11.737zm-129.262009,-104.496002c0,-8.755005 8.582001,-15.855988 19.167999,-15.855988h87.460037c10.584991,0 19.167999,7.10199 19.167999,15.855988v29.821014c0,8.760986 -8.583008,15.858978 -19.167999,15.858978h-87.460037c-10.586975,0 -19.167999,-7.097992 -19.167999,-15.858978v-29.821014l0,0zm99.108994,109.636993h-12.265961c-2.969025,0 -5.610016,-2.302979 -5.899048,-5.141998l-1.194977,-11.737c-0.289001,-2.838989 1.820984,-5.139008 4.711975,-5.139008h11.948029c2.891022,0 5.531982,2.300018 5.89801,5.139008l1.515961,11.737c0.364014,2.83902 -1.743958,5.141998 -4.713989,5.141998zm-115.090988,-16.877991c0.039001,-2.838989 2.414001,-5.139008 5.304993,-5.139008h11.948029c2.892975,0 5.267975,2.300018 5.304993,5.139008l0.160004,11.737c0.039001,2.838989 -2.335999,5.141998 -5.305023,5.141998h-12.267975c-2.968018,0 -5.343018,-2.303009 -5.304016,-5.141998l0.158997,-11.737zm-0.329987,24.296997c0.037994,-2.838013 2.483002,-5.141998 5.458008,-5.141998h12.299988c2.977997,0 5.42099,2.303009 5.459991,5.141998l0.15802,11.734024c0.039978,2.841949 -2.404022,5.144989 -5.458008,5.144989h-12.619995c-3.052002,0 -5.496002,-2.30304 -5.458008,-5.144989l0.160004,-11.734024zm-122.470001,-129.514984h112.942993v30.336975h-112.942993v-30.336975l0,0zm49.627991,105.217987l-1.195999,11.737c-0.289001,2.838989 -2.927994,5.141998 -5.897003,5.141998h-12.26799c-2.968002,0 -5.078003,-2.303009 -4.712006,-5.141998l1.516006,-11.737c0.367996,-2.838989 3.009003,-5.139008 5.899002,-5.139008h11.947998c2.889999,0 4.998993,2.300018 4.709991,5.139008zm-25.085999,0l-1.550003,11.737c-0.375,2.838989 -3.084991,5.141998 -6.054001,5.141998h-12.26799c-2.968002,0 -5.007996,-2.303009 -4.555008,-5.141998l1.87001,-11.737c0.451996,-2.838989 3.164001,-5.139008 6.054993,-5.139008h11.947998c2.889008,0 4.929001,2.300018 4.554001,5.139008zm-6.42099,48.594009l-1.550003,11.732971c-0.375,2.83902 -3.223999,5.141998 -6.363007,5.141998h-12.972c-3.140991,0 -5.317993,-2.302979 -4.865997,-5.141998l1.871994,-11.732971c0.451004,-2.84198 3.30101,-5.141998 6.361008,-5.141998h12.653c3.061996,0 5.240997,2.300018 4.865005,5.141998zm-4.549011,-7.419006h-12.621002c-3.052994,0 -5.160995,-2.302979 -4.709,-5.14502l1.869003,-11.733994c0.45401,-2.837982 3.234009,-5.141998 6.210007,-5.141998h12.300003c2.975998,0 5.085999,2.303009 4.709,5.141998l-1.550003,11.733994c-0.375,2.842041 -3.153,5.14502 -6.208008,5.14502zm29.910004,19.151978c-0.289001,2.83902 -3.067001,5.141998 -6.207001,5.141998h-12.972c-3.139999,0 -5.386993,-2.302979 -5.020996,-5.141998l1.515991,-11.732971c0.366013,-2.84198 3.146011,-5.141998 6.207001,-5.141998h12.653c3.063004,0 5.307999,2.300018 5.019012,5.141998l-1.195007,11.732971zm-3.578995,-19.151978h-12.619003c-3.052994,0 -5.231003,-2.302979 -4.865997,-5.14502l1.515991,-11.733994c0.366013,-2.837982 3.077011,-5.141998 6.053009,-5.141998h12.300995c2.977005,0 5.154007,2.303009 4.865005,5.141998l-1.195007,11.733994c-0.291,2.842041 -2.998993,5.14502 -6.054993,5.14502zm30.490997,19.151978c-0.203003,2.83902 -2.912994,5.141998 -6.052002,5.141998h-12.972c-3.138992,0 -5.457001,-2.302979 -5.175995,-5.141998l1.159988,-11.732971c0.281006,-2.84198 2.991013,-5.141998 6.053009,-5.141998h12.651993c3.063004,0 5.378006,2.300018 5.17601,5.141998l-0.841003,11.732971zm1.740005,-24.296997c-0.20401,2.842041 -2.843002,5.14502 -5.897003,5.14502h-12.621002c-3.053009,0 -5.302002,-2.302979 -5.020996,-5.14502l1.159988,-11.733994c0.281006,-2.837982 2.920013,-5.141998 5.89801,-5.141998h12.300003c2.977997,0 5.224991,2.303009 5.020996,5.141998l-0.839996,11.733994zm1.73999,-24.292984c-0.203003,2.838989 -2.774994,5.141998 -5.742996,5.141998h-12.268005c-2.968002,0 -5.145996,-2.303009 -4.866989,-5.141998l1.159988,-11.737c0.281006,-2.838989 2.852005,-5.139008 5.74501,-5.139008h11.946991c2.891006,0 5.070007,2.300018 4.865997,5.139008l-0.839996,11.737zm45.393005,48.589981c-0.046997,2.83902 -2.630005,5.141998 -5.769012,5.141998h-12.971985c-3.139008,0 -5.583008,-2.302979 -5.458008,-5.141998l0.514008,-11.732971c0.126007,-2.84198 2.708008,-5.141998 5.768982,-5.141998h12.653015c3.062988,0 5.503998,2.300018 5.457001,5.141998l-0.194,11.732971zm0.404999,-24.296997c-0.046997,2.842041 -2.561005,5.14502 -5.61499,5.14502h-12.619019c-3.053986,0 -5.428986,-2.302979 -5.304993,-5.14502l0.514008,-11.733994c0.126007,-2.837982 2.639984,-5.141998 5.617004,-5.141998h12.298981c2.977997,0 5.351013,2.303009 5.303009,5.141998l-0.194,11.733994zm0.402985,-24.292984c-0.044983,2.838989 -2.490997,5.141998 -5.459991,5.141998h-12.265991c-2.968994,0 -5.274017,-2.303009 -5.149994,-5.141998l0.514984,-11.737c0.125,-2.838989 2.571014,-5.139008 5.459991,-5.139008h11.949005c2.891022,0 5.196014,2.300018 5.14801,5.139008l-0.196014,11.737zm20.491028,53.731979h-12.973999c-3.138,0 -5.651001,-2.302979 -5.61203,-5.141998l0.15802,-11.732971c0.039001,-2.84198 2.553009,-5.141998 5.613983,-5.141998h12.653015c3.062988,0 5.574005,2.300018 5.613983,5.141998l0.160004,11.732971c0.037018,2.83902 -2.473999,5.141998 -5.612976,5.141998zm7.319977,-65.468979c-0.046997,-2.838989 2.257019,-5.139008 5.150024,-5.139008h11.947998c2.890991,0 5.335999,2.300018 5.459991,5.139008l0.515991,11.737c0.123993,2.838989 -2.181,5.141998 -5.149994,5.141998h-12.268005c-2.970001,0 -5.415009,-2.303009 -5.459991,-5.141998l-0.196014,-11.737zm0.404999,24.296997c-0.048004,-2.838013 2.326996,-5.141998 5.303009,-5.141998h12.299988c2.978027,0 5.491028,2.303009 5.615021,5.141998l0.514984,11.734024c0.126007,2.841949 -2.248993,5.144989 -5.302979,5.144989h-12.621002c-3.053009,0 -5.568024,-2.30304 -5.615021,-5.144989l-0.194,-11.734024zm19.34201,41.171982h-12.971985c-3.139008,0 -5.723022,-2.302979 -5.771027,-5.141998l-0.194,-11.732971c-0.046997,-2.84198 2.396027,-5.141998 5.457001,-5.141998h12.653015c3.061981,0 5.644989,2.300018 5.770996,5.141998l0.514008,11.732971c0.123993,2.83902 -2.319,5.141998 -5.458008,5.141998zm25.811005,-65.468979c-0.201996,-2.838989 1.97699,-5.139008 4.867981,-5.139008h11.946014c2.890991,0 5.463974,2.300018 5.743027,5.139008l1.16098,11.737c0.278992,2.838989 -1.899017,5.141998 -4.86702,5.141998h-12.266998c-2.968994,0 -5.539978,-2.303009 -5.742981,-5.141998l-0.841003,-11.737zm1.738983,24.296997c-0.203003,-2.838013 2.045013,-5.141998 5.021027,-5.141998h12.299988c2.977982,0 5.61702,2.303009 5.898026,5.141998l1.159943,11.734024c0.281036,2.841949 -1.966949,5.144989 -5.020996,5.144989h-12.618973c-3.054016,0 -5.695007,-2.30304 -5.897003,-5.144989l-0.84201,-11.734024zm21.606003,41.171982h-12.972c-3.140991,0 -5.848999,-2.302979 -6.052979,-5.141998l-0.83902,-11.732971c-0.203979,-2.84198 2.113007,-5.141998 5.175995,-5.141998h12.651993c3.063049,0 5.770996,2.300018 6.051025,5.141998l1.159973,11.732971c0.280029,2.83902 -2.03595,5.141998 -5.174988,5.141998zm4.21698,-41.171982c-0.290985,-2.838013 1.888,-5.141998 4.865051,-5.141998h37.966003c2.975952,0 5.755981,2.303009 6.207947,5.141998l1.870056,11.734024c0.451965,2.841949 -1.656006,5.144989 -4.710052,5.144989h-38.950958c-3.054016,0 -5.764038,-2.30304 -6.05304,-5.144989l-1.195007,-11.734024zm49.917053,41.171982h-40.041046c-3.138,0 -5.916992,-2.302979 -6.207001,-5.141998l-1.195984,-11.732971c-0.289001,-2.84198 1.958008,-5.141998 5.02002,-5.141998h39.054016c3.062988,0 5.91095,2.300018 6.363983,5.141998l1.869995,11.732971c0.451996,2.83902 -1.725006,5.141998 -4.863983,5.141998z"/>
   <path d="m0.720001,314.207031v55.770996h0.014999c-0.735001,8.395966 5.964996,15.200012 14.968994,15.200012h310.927994c9.002991,0 15.70401,-6.804047 14.968994,-15.200012v-55.770996h-340.880982l0,0zm170.447006,61.098999c-8.322021,0 -15.069,-6.746033 -15.069,-15.069061c0,-8.323944 6.746979,-15.07196 15.069,-15.07196c8.322998,0 15.069977,6.748993 15.069977,15.07196c0.001007,8.323029 -6.746002,15.069061 -15.069977,15.069061z"/>
  </g>
 </g>
</svg>