<?xml version="1.0"?><svg width="377" height="337" xmlns="http://www.w3.org/2000/svg">
 <title>1_severe risk solid red</title>
 <defs>
  <filter id="filter3172">
   <feGaussianBlur id="feGaussianBlur3174" stdDeviation="5.092479"/>
  </filter>
 </defs>
 <metadata id="metadata7">image/svg+xml3D effect warning triangle18/9/07Tim O'Ryan</metadata>
 <g>
  <path opacity="0" fill="#777777" fill-opacity="0.797297" stroke-width="2" stroke-linecap="round" stroke-linejoin="round" stroke-miterlimit="4" filter="url(#filter3172)" id="path3152" d="m196.751343,19.392912c-4.181,0.217503 -7.971008,2.5466 -10.078003,6.193302l-167.604103,291.536711c-2.2215,3.86499 -2.2285,8.631012 -0.018398,12.502991c2.210098,3.871002 6.301399,6.26001 10.732498,6.266022l334.234974,0.527985c4.433044,0.014008 8.536011,-2.359009 10.761047,-6.223999c2.225952,-3.864014 2.237,-8.631989 0.027954,-12.506989l-166.667969,-292.06492c-2.332001,-4.070099 -6.73201,-6.477402 -11.388,-6.231102l0,0l0,0l0,0l0,0l0,0l0,0l0,0zm0.598999,37.461702l145.23999,254.52832l-291.303894,-0.453003l146.063904,-254.075317l0,0l0,0l0,0l0,0l0,0l0,0z"/>
  <path fill="#000000" stroke-width="2" id="text2171" d="m185.799576,216.737991l-3.972534,0c-0.410965,-8.261002 -1.780807,-18.152542 -4.109512,-29.674622l-4.725967,-23.478836c-2.831009,-14.076309 -4.24649,-24.158081 -4.246475,-30.245316c-0.000015,-12.282753 4.999893,-18.424202 14.999756,-18.424355c4.383438,0.000153 8.00209,1.698563 10.855957,5.095245c2.853806,3.396957 4.280731,7.731293 4.280762,13.003029c-0.000031,5.598083 -1.506851,15.788544 -4.520477,30.571396l-4.794434,23.478836c-1.689499,8.261124 -2.94519,18.152649 -3.767075,29.674622l0,0zm-1.849258,15.40799c4.65741,0.000061 8.264633,1.861481 10.821732,5.584351c2.556976,3.722961 3.83551,7.704041 3.835541,11.943268c-0.000031,5.597992 -1.552521,9.905136 -4.657471,12.921524c-3.104996,3.016357 -6.438248,4.524536 -9.999802,4.524536c-4.703156,0 -8.321808,-1.847839 -10.856003,-5.54361c-2.53421,-3.69574 -3.801315,-7.663223 -3.801285,-11.902451c-0.000031,-4.94574 1.404068,-9.103455 4.21225,-12.473145c2.808136,-3.369598 6.289825,-5.054413 10.445038,-5.054474l0,0z"/>
  <title>Layer 1</title>
  <path fill="#000000" stroke="#ffffff" stroke-width="7" stroke-linecap="round" stroke-linejoin="round" stroke-miterlimit="4" id="path2178" d="m181.629333,3.509314c-1,0 -7.970001,2.5466 -10.076996,6.193298l-167.6047,291.53631c-2.2215,3.86499 -2.2285,8.631012 -0.0184,12.502991c2.210098,3.872009 6.301399,6.26001 10.732498,6.266022l334.234596,0.528992c4.433014,0.013 9.53598,-2.360016 10.762024,-6.223999c1.225983,-3.864014 2.235962,-8.632996 0.026978,-12.507019l-166.667999,-292.065596c-2.332001,-4.07 -6.731995,-6.477299 -11.388,-6.230999l0,0c0,0 1,0 0,0l0,0l0,0l0,0l0,0l0,0zm0.598999,37.461702l145.23999,254.527916l-291.303387,-0.453003l146.063396,-254.074913z"/>
 </g>
</svg>