<?xml version="1.0" encoding="UTF-8"?><!DOCTYPE svg PUBLIC "-//W3C//DTD SVG 1.1//EN" "http://www.w3.org/Graphics/SVG/1.1/DTD/svg11.dtd"><svg xmlns="http://www.w3.org/2000/svg" xml:space="preserve" width="727px" height="733px" version="1.1" style="shape-rendering:geometricPrecision; text-rendering:geometricPrecision; image-rendering:optimizeQuality; fill-rule:evenodd; clip-rule:evenodd" viewBox="0 0 216 218"  xmlns:xlink="http://www.w3.org/1999/xlink"> <defs>  <style type="text/css">   <![CDATA[    .str0 {stroke:black;stroke-width:3.50942}    .fil0 {fill:white}    .fil1 {fill:url(#id0)}   ]]>  </style>  <linearGradient id="id0" gradientUnits="userSpaceOnUse" x1="110.478" y1="18.296" x2="110.478" y2="192.942">   <stop offset="0" style="stop-opacity:1; stop-color:#69BE5A"/>   <stop offset="0.0705882" style="stop-opacity:1; stop-color:#5FB356"/>   <stop offset="0.360784" style="stop-opacity:1; stop-color:#2E9648"/>   <stop offset="0.509804" style="stop-opacity:1; stop-color:#0A8D45"/>   <stop offset="0.631373" style="stop-opacity:1; stop-color:#219246"/>   <stop offset="0.8" style="stop-opacity:1; stop-color:#42A04D"/>   <stop offset="1" style="stop-opacity:1; stop-color:#69BE5B"/>  </linearGradient> </defs> <g id="Camada_x0020_1">  <metadata id="CorelCorpID_0Corel-Layer"/>  <path class="fil0 str0" d="M110 2c-57,0 -103,46 -103,104 0,19 5,38 15,53l-19 56 57 -18c15,8 32,12 50,12 58,0 104,-46 104,-103 0,-58 -46,-104 -104,-104z"/>  <path class="fil1" d="M110 18c-48,0 -87,39 -87,88 0,19 6,36 17,51l-11 32 33 -10c14,9 31,14 48,14 49,0 88,-39 88,-87 0,-49 -39,-88 -88,-88z"/>  <path class="fil0" d="M86 63c-2,-4 -3,-5 -5,-5 -1,0 -2,0 -3,0 -4,0 -7,1 -9,3 -3,3 -9,9 -9,22 0,12 9,24 10,26 1,2 18,28 44,38 20,9 26,8 30,7 7,-2 15,-6 17,-12 3,-6 3,-11 2,-12 -1,-2 -2,-2 -5,-3 -3,-2 -15,-8 -17,-9 -3,-1 -5,0 -7,2 -2,4 -5,7 -6,9 -2,2 -5,2 -7,1 -2,-1 -10,-4 -20,-12 -8,-7 -13,-16 -14,-18 -2,-3 0,-4 1,-6 1,-1 2,-2 3,-4 2,-1 2,-2 3,-4 1,-1 1,-3 0,-4 -1,-2 -6,-14 -8,-19z"/> </g></svg>