<?xml version="1.0" encoding="utf-8"?>
<!DOCTYPE svg PUBLIC "-//W3C//DTD SVG 1.1//EN" "http://www.w3.org/Graphics/SVG/1.1/DTD/svg11.dtd">
<svg version="1.1" id="shoppingcart" xmlns="http://www.w3.org/2000/svg" xmlns:xlink="http://www.w3.org/1999/xlink" x="0px" y="0px"
	 width="128px" height="128px" viewBox="0 0 128 128" enable-background="new 0 0 128 128" xml:space="preserve">
<g>
	<path d="M118.898,18c5.526,0,8.102,3.005,8.102,7.057v34.435c0,3.867-2.947,6.996-6.821,7.363l-74.388,8.391
		C39.713,75.98,38.977,84,46.158,84H117c8,0,8,12,0,12H44.688c-16.208,0-22.282-17.976-9.578-27.368l6.445-4.76L18.724,14H7
		C-1,14-1,1,7,1h13.561c6.63,0,8.474,3.07,10.497,7.855L35.662,18H118.898z M39.528,116.027c0,6.254-4.971,11.408-11.601,11.408
		c-6.263,0-11.419-5.154-11.419-11.408c0-6.451,5.156-11.607,11.419-11.607C34.558,104.42,39.528,109.576,39.528,116.027z
		 M46.158,41h18.597l-4.048-13H40.451L46.158,41z M71.2,61.992L66.415,47H48.918l7.552,16.428L71.2,61.992z M67.333,28L71.2,41
		h18.23l-2.948-13H67.333z M94.216,59.6L90.541,47H73.045l4.6,14.217L94.216,59.6z M117,28H93.119l2.764,13H117V28z
		 M117.417,116.027c0,6.254-4.971,11.408-11.408,11.408c-6.452,0-11.607-5.154-11.607-11.408c0-6.451,5.155-11.607,11.607-11.607
		C112.446,104.42,117.417,109.576,117.417,116.027z M117,47H97.35l3.01,11.678L117,57.1V47z"/>
</g>
</svg>
